<?xml version="1.0" encoding="UTF-8" standalone="no"?><!DOCTYPE svg PUBLIC "-//W3C//DTD SVG 1.1//EN" "http://www.w3.org/Graphics/SVG/1.1/DTD/svg11.dtd"><svg width="1024px" height="276px" version="1.1" xmlns="http://www.w3.org/2000/svg" xmlns:xlink="http://www.w3.org/1999/xlink" xml:space="preserve" xmlns:serif="http://www.serif.com/" style="fill-rule:evenodd;clip-rule:evenodd;stroke-linejoin:round;stroke-miterlimit:2;"><g id="V4"><g><path d="M146.325,248.962L27.526,248.962L27.526,35.681L145.446,35.681L145.446,65.563L63.121,65.563L63.121,124.45L133.873,124.45L133.873,153.747L63.121,153.747L63.121,219.226L146.325,219.226L146.325,248.962Z" style="fill:#ed1c2d;"/><path d="M199.217,169.86L199.217,248.962L163.621,248.962L163.621,35.681L234.08,35.681C248.241,35.681 260.277,38.61 270.189,44.47C280.101,50.329 287.694,58.361 292.967,68.566C298.241,78.771 300.877,90.466 300.877,103.649C300.877,117.419 298.241,129.235 292.967,139.099C287.694,148.962 280.101,156.555 270.189,161.877C260.277,167.199 248.241,169.86 234.08,169.86L199.217,169.86ZM199.217,140.124L234.08,140.124C241.502,140.124 247.459,138.562 251.952,135.437C256.444,132.312 259.74,128.015 261.839,122.546C263.939,117.077 264.989,110.876 264.989,103.942C264.989,97.302 263.939,91.052 261.839,85.192C259.74,79.333 256.444,74.597 251.952,70.983C247.459,67.37 241.502,65.563 234.08,65.563L199.217,65.563L199.217,140.124Z" style="fill:#0082c4;"/><path d="M439.024,248.962L320.225,248.962L320.225,35.681L438.145,35.681L438.145,65.563L355.821,65.563L355.821,124.45L426.573,124.45L426.573,153.747L355.821,153.747L355.821,219.226L439.024,219.226L439.024,248.962ZM532.032,232.26C528.114,238.354 523.36,243.116 517.771,246.545C511.96,250.109 505.149,251.892 497.336,251.892C489.231,251.892 481.98,250.28 475.583,247.058C469.187,243.835 463.718,239.05 459.177,232.702C454.636,226.354 451.194,218.469 448.85,209.045C446.506,199.621 445.334,188.659 445.334,176.159L445.334,163.708C445.334,150.72 446.506,139.465 448.85,129.943C451.194,120.422 454.636,112.487 459.177,106.14C463.718,99.792 469.211,95.104 475.657,92.077C482.102,89.05 489.377,87.536 497.483,87.536C505.393,87.536 512.229,89.318 517.991,92.883C522.738,95.82 526.888,99.767 530.442,104.726L530.442,23.962L564.573,23.962L564.573,248.962L533.664,249.108L532.032,232.26ZM530.442,132.413C529.518,130.556 528.493,128.83 527.366,127.233C525.022,123.913 522.165,121.301 518.796,119.396C515.427,117.492 511.496,116.54 507.004,116.54C502.024,116.54 497.776,117.492 494.26,119.396C490.745,121.301 487.912,124.182 485.764,128.039C483.616,131.896 482.029,136.779 481.003,142.688C479.978,148.596 479.465,155.603 479.465,163.708L479.465,176.159C479.465,184.265 479.954,191.247 480.93,197.106C481.907,202.966 483.469,207.775 485.618,211.535C487.766,215.295 490.598,218.078 494.114,219.885C497.629,221.691 501.877,222.595 506.858,222.595C513.108,222.595 518.21,221.032 522.165,217.907C525.579,215.21 528.338,211.695 530.442,207.361L530.442,132.413ZM623.618,90.466L623.618,248.962L589.487,248.962L589.487,90.466L623.618,90.466ZM587.729,48.864C587.729,43.396 589.389,38.854 592.709,35.241C596.03,31.628 600.668,29.821 606.625,29.821C612.582,29.821 617.221,31.628 620.541,35.241C623.862,38.854 625.522,43.396 625.522,48.864C625.522,54.235 623.862,58.728 620.541,62.341C617.221,65.954 612.582,67.761 606.625,67.761C600.668,67.761 596.03,65.954 592.709,62.341C589.389,58.728 587.729,54.235 587.729,48.864ZM655.416,116.833L634.176,116.833L634.176,90.466L655.416,90.466L655.416,51.647L689.401,51.647L689.401,90.466L711.959,90.466L711.959,116.833L689.401,116.833L689.401,204.724C689.401,209.606 689.938,213.317 691.012,215.856C692.086,218.396 693.6,220.104 695.553,220.983C697.506,221.862 699.801,222.302 702.438,222.302C704.391,222.302 706.32,222.131 708.224,221.789C710.128,221.447 711.52,221.13 712.399,220.837L712.399,248.376C709.86,249.353 706.93,250.183 703.61,250.866C700.289,251.55 696.286,251.892 691.598,251.892C684.664,251.892 678.463,250.451 672.995,247.57C667.526,244.689 663.229,239.953 660.104,233.361C656.979,226.77 655.416,218.005 655.416,207.067L655.416,116.833ZM730.428,234.606C730.428,230.017 731.869,226.135 734.749,222.961C737.63,219.787 741.805,218.2 747.274,218.2C752.743,218.2 756.917,219.787 759.798,222.961C762.679,226.135 764.12,230.017 764.12,234.606C764.12,239.099 762.679,242.907 759.798,246.032C756.917,249.157 752.743,250.72 747.274,250.72C741.805,250.72 737.63,249.157 734.749,246.032C731.869,242.907 730.428,239.099 730.428,234.606Z" style="fill:#4f535b;"/><path d="M877.287,174.646L877.287,230.993C875.295,233.662 872.219,236.543 868.059,239.636C863.899,242.728 858.537,245.381 851.975,247.595C845.413,249.808 837.473,250.915 828.157,250.915C819.895,250.915 812.366,249.401 805.569,246.374C798.772,243.347 792.927,238.903 788.035,233.044C783.142,227.185 779.377,220.007 776.741,211.511C774.104,203.015 772.786,193.298 772.786,182.36L772.786,173.474C772.786,162.536 774.06,152.803 776.609,144.274C779.158,135.746 782.805,128.552 787.551,122.692C792.297,116.833 797.952,112.373 804.514,109.313C811.077,106.254 818.371,104.724 826.399,104.724C837.532,104.724 846.672,106.726 853.821,110.729C860.969,114.733 866.433,120.267 870.212,127.331C873.992,134.395 876.321,142.484 877.2,151.599L851.623,151.599C850.979,146.781 849.748,142.582 847.932,139.001C846.116,135.42 843.523,132.621 840.154,130.603C836.785,128.584 832.434,127.575 827.102,127.575C822.707,127.575 818.796,128.568 815.369,130.554C811.941,132.539 809.055,135.453 806.711,139.294C804.368,143.135 802.58,147.888 801.35,153.552C800.12,159.216 799.504,165.791 799.504,173.278L799.504,182.36C799.504,189.782 800.149,196.341 801.438,202.038C802.727,207.735 804.646,212.52 807.195,216.394C809.744,220.267 812.893,223.181 816.643,225.134C820.393,227.087 824.758,228.063 829.739,228.063C833.899,228.063 837.371,227.673 840.154,226.892C842.937,226.11 845.193,225.15 846.921,224.011C848.65,222.871 849.983,221.781 850.92,220.739L850.92,195.544L826.838,195.544L826.838,174.646L877.287,174.646ZM996.474,174.548L996.474,181.286C996.474,192.093 995.156,201.794 992.519,210.388C989.882,218.981 986.162,226.289 981.357,232.312C976.552,238.334 970.825,242.94 964.174,246.13C957.524,249.32 950.156,250.915 942.07,250.915C934.043,250.915 926.704,249.32 920.053,246.13C913.403,242.94 907.646,238.334 902.783,232.312C897.92,226.289 894.155,218.981 891.489,210.388C888.823,201.794 887.49,192.093 887.49,181.286L887.49,174.548C887.49,163.675 888.808,153.959 891.445,145.397C894.082,136.836 897.817,129.528 902.651,123.474C907.485,117.419 913.227,112.797 919.878,109.606C926.528,106.416 933.867,104.821 941.894,104.821C949.98,104.821 957.348,106.416 963.999,109.606C970.649,112.797 976.391,117.419 981.225,123.474C986.059,129.528 989.809,136.836 992.475,145.397C995.141,153.959 996.474,163.675 996.474,174.548ZM969.843,181.286L969.843,174.353C969.843,166.8 969.228,160.16 967.998,154.431C966.767,148.701 964.951,143.884 962.548,139.978C960.146,136.071 957.216,133.125 953.759,131.14C950.302,129.154 946.347,128.161 941.894,128.161C937.441,128.161 933.501,129.154 930.073,131.14C926.645,133.125 923.745,136.071 921.372,139.978C918.999,143.884 917.197,148.701 915.966,154.431C914.736,160.16 914.121,166.8 914.121,174.353L914.121,181.286C914.121,188.773 914.736,195.397 915.966,201.159C917.197,206.921 919.013,211.771 921.416,215.71C923.818,219.649 926.748,222.627 930.205,224.646C933.662,226.664 937.617,227.673 942.07,227.673C946.523,227.673 950.478,226.664 953.935,224.646C957.392,222.627 960.293,219.649 962.636,215.71C964.98,211.771 966.767,206.921 967.998,201.159C969.228,195.397 969.843,188.773 969.843,181.286Z" style="fill:#00add8;"/></g></g></svg>